<?xml version="1.0" encoding="UTF-8" standalone="no"?> <svg xmlns="http://www.w3.org/2000/svg" viewBox="0 0 24 24"><defs><style>.cls-1{fill:#3fa9f5;}</style></defs><title>Comments, compose, edit, note, write</title><g id="_01" data-name="01"><polygon class="cls-1" points="7 3 7 19 17 19 17 21 4 21 4 3 7 3"/><polygon class="cls-1" points="20 7 10 17 10.5 13.5 18 6 20 7"/><path d="M17,22H4a1,1,0,0,1-1-1V3A1,1,0,0,1,4,2H17a1,1,0,0,1,1,1V7a1,1,0,0,1-2,0V4H5V20H16V13a1,1,0,0,1,2,0v8A1,1,0,0,1,17,22Z"/><path d="M13,18H10a1,1,0,0,1-1-1V14a1,1,0,0,1,.29-.71l8.5-8.5a1,1,0,0,1,1.42,0l2.5,2.5a1,1,0,0,1-1.42,1.42L18.5,6.91,11,14.41V16h1.59l5.7-5.71a1,1,0,0,1,1.42,1.42l-6,6A1,1,0,0,1,13,18Z"/><path d="M10,8H7A1,1,0,0,1,7,6h3a1,1,0,0,1,0,2Z"/><path d="M9,11H7A1,1,0,0,1,7,9H9a1,1,0,0,1,0,2Z"/></g></svg>